<svg t="1653901598241" class="icon" viewBox="0 0 1024 1024" version="1.1" xmlns="http://www.w3.org/2000/svg" p-id="4285" width="128" height="128"><path d="M964.266667 310.613333H738.986667c-13.653333 0-25.6-11.946667-25.6-25.6V59.733333c0-13.653333 11.946667-25.6 25.6-25.6s25.6 11.946667 25.6 25.6v201.386667h201.386666c13.653333 0 25.6 11.946667 25.6 25.6s-13.653333 23.893333-27.306666 23.893333zM286.72 310.613333H59.733333c-13.653333 0-25.6-11.946667-25.6-25.6s11.946667-25.6 25.6-25.6h201.386667V59.733333c0-13.653333 11.946667-25.6 25.6-25.6s25.6 11.946667 25.6 25.6v226.986667c0 13.653333-11.946667 23.893333-25.6 23.893333zM286.72 989.866667c-13.653333 0-25.6-11.946667-25.6-25.6V762.88H59.733333c-13.653333 0-25.6-11.946667-25.6-25.6s11.946667-25.6 25.6-25.6h226.986667c13.653333 0 25.6 11.946667 25.6 25.6v226.986667c0 13.653333-11.946667 25.6-25.6 25.6zM738.986667 989.866667c-13.653333 0-25.6-11.946667-25.6-25.6V737.28c0-13.653333 11.946667-25.6 25.6-25.6h223.573333c13.653333 0 25.6 11.946667 25.6 25.6s-11.946667 25.6-25.6 25.6H764.586667v201.386667c0 13.653333-11.946667 25.6-25.6 25.6z" fill="#1897ff" p-id="4286"></path></svg>